<?xml version="1.0" encoding="UTF-8"?>
<svg xmlns="http://www.w3.org/2000/svg" width="281" height="173" viewBox="0 0 281 173" fill="none">
  <g clip-path="url(#clip0_2003_17993)">
    <path d="M1.28638 155.207C1.28638 155.207 -0.172274 170.688 18.9152 167.527C38.0046 164.366 71.0425 158.893 75.868 158.094C89.5593 155.827 98.8577 162.221 102.792 172.357C103.172 173.338 104.603 173.15 104.683 172.101L108.412 123.32L4.87146 138.058C4.87146 138.058 2.03809 146.86 1.28638 155.207Z" fill="#DF8C0F"></path>
    <path d="M280.609 10.7382L250.897 56.9476C250.328 57.8337 250.399 58.986 251.074 59.794L280.337 94.888C281.533 96.3214 280.717 98.5069 278.875 98.8122L15.2646 142.477C6.76821 143.884 2.80634 150.022 1.28613 155.208C1.28613 155.208 4.35267 74.4463 4.83578 66.4714C5.31702 58.4983 11.6907 51.1936 27.4244 48.5874L278.179 7.05421C280.247 6.71168 281.741 8.9772 280.609 10.7382Z" fill="#FCBA11"></path>
    <path d="M94.7023 84.1554C91.3336 84.1554 88.2279 82.8653 85.9597 80.5216C84.4133 78.9281 83.3296 76.9232 82.7924 74.6763L74.3949 76.1619L74.4807 73.6636L70.4908 74.3692L70.849 63.7471L58.165 65.994C57.8218 66.0536 57.4916 66.0815 57.1689 66.0815C55.7066 66.0815 54.3505 65.5137 53.3526 64.4843C52.3173 63.4158 51.7745 61.9656 51.8268 60.4001L52.0357 55.1114L42.5097 56.7979C42.0023 56.8873 41.4949 56.9301 40.9932 56.9301C38.5702 56.9301 36.2404 55.8839 34.5598 54.1396C34.349 54.6981 34.0786 55.2268 33.7484 55.7257C32.48 57.6412 30.5233 58.9201 28.2383 59.3241L25.8209 59.7504C25.3154 59.8416 24.8099 59.8844 24.3063 59.8844C20.1728 59.8844 16.4852 56.9376 15.5413 52.8794C14.9985 50.5524 15.4108 48.1957 16.6997 46.2466C17.9662 44.3348 19.9192 43.0578 22.2004 42.6557L24.6178 42.2257C25.1214 42.1363 25.6232 42.0935 26.1231 42.0935C28.5666 42.0935 30.9132 43.1472 32.5994 44.9063C33.5432 42.4547 35.6006 40.554 38.2325 39.8671L43.8583 38.86C44.3302 38.7762 44.7256 38.523 44.9756 38.1433C45.2479 37.7319 45.3281 37.2107 45.205 36.6764C44.9606 35.632 43.9515 34.813 42.907 34.813C42.795 34.813 42.6831 34.8223 42.5731 34.8428L30.5121 36.978C29.9731 37.0487 29.6354 37.0673 29.3015 37.0673C26.72 37.0673 24.3007 35.9243 22.622 34.0404C22.3963 34.7124 22.0848 35.3528 21.6893 35.9485C20.4228 37.8659 18.4661 39.1448 16.1793 39.5488L10.5125 40.5521C10.007 40.6434 9.50152 40.6862 8.99976 40.6862C4.86255 40.6862 1.17488 37.7393 0.231042 33.6793C-0.309891 31.3523 0.102337 28.9993 1.39125 27.0484C2.65592 25.1366 4.61074 23.8596 6.89198 23.4556L12.5587 22.4504C13.0624 22.361 13.5623 22.3182 14.0622 22.3182C16.6549 22.3182 19.0835 23.4686 20.766 25.36C20.9917 24.688 21.3051 24.0476 21.7005 23.45C22.9652 21.5382 24.9181 20.2612 27.2012 19.8554L138.859 0.0893547C139.197 0.0279233 139.529 0 139.85 0C141.312 0 142.668 0.569636 143.67 1.6028C144.703 2.67319 145.242 4.12335 145.186 5.68705L145.171 6.0817L147.887 5.59584C152.606 4.7358 156.016 4.11404 158.947 4.11404C162.651 4.11404 165.395 5.13417 167.836 7.42016C171.285 10.6537 183.016 21.3316 185.363 23.4686L188.966 23.7795C193.669 24.176 201.531 25.6616 201.348 31.1755C201.305 32.4469 201.225 36.2445 201.165 39.2472H201.18V39.2546L203.62 38.8228L203.85 42.5384C204.101 46.5706 200.749 51.3976 199.716 52.7788L198.929 53.8325L195.187 54.4971C194.103 61.5226 188.256 67.7979 181.531 68.9893C180.731 69.1308 179.922 69.2034 179.127 69.2034C175.753 69.2034 172.643 67.9133 170.375 65.5677C168.767 63.9072 167.665 61.8148 167.154 59.4637L144.466 63.4809L144.429 64.5886L121.419 68.6616L121.534 65.3332L121.008 65.4281L120.923 67.9263L110.721 69.7339C109.533 76.7259 103.814 82.7536 97.1122 83.9413C96.3027 84.0846 95.4931 84.1572 94.7041 84.1572L94.7023 84.1554Z" fill="#FCBA11"></path>
    <path d="M211.082 41.6527C210.177 41.6527 209.379 41.0012 209.226 40.0816C209.056 39.0577 209.75 38.0897 210.776 37.9184L229.727 34.7799C230.744 34.6086 231.723 35.303 231.893 36.325C232.062 37.3488 231.369 38.3168 230.343 38.4881L211.391 41.6267C211.287 41.6434 211.184 41.6527 211.082 41.6527Z" fill="white"></path>
    <path d="M237.567 37.3637C236.662 37.3637 235.864 36.7122 235.711 35.7926C235.541 34.7687 236.235 33.8007 237.261 33.6295L243.45 32.5572C244.467 32.3859 245.446 33.0803 245.616 34.1023C245.786 35.1262 245.092 36.0942 244.066 36.2654L237.877 37.3377C237.772 37.3544 237.67 37.3637 237.567 37.3637Z" fill="white"></path>
    <path d="M45.1843 69.3438C46.1766 69.3438 47.0533 70.0586 47.2212 71.0694C47.4077 72.1957 46.6448 73.2567 45.52 73.4448L44.1416 73.6737C43.0131 73.8506 41.9499 73.1022 41.7615 71.976C41.5749 70.8498 42.3378 69.7887 43.4626 69.6006L44.8411 69.3717C44.9567 69.3531 45.0705 69.3456 45.1824 69.3456L45.1843 69.3438Z" fill="white"></path>
    <path d="M59.566 66.9609C60.5584 66.9609 61.4351 67.6758 61.6029 68.6866C61.7895 69.8128 61.0266 70.8739 59.9018 71.0619L52.1347 72.3483C50.995 72.5363 49.943 71.7768 49.7546 70.6505C49.5681 69.5243 50.331 68.4632 51.4558 68.2752L59.2228 66.9889C59.3385 66.9702 59.4523 66.9628 59.5642 66.9628L59.566 66.9609Z" fill="white"></path>
    <path d="M197.771 43.0243H197.762C197.786 41.6542 197.95 33.1078 198.019 31.0657C198.092 28.8616 193.399 27.4859 188.678 27.0876L183.949 26.6817C183.949 26.6817 169.469 13.5075 165.557 9.84582C161.48 6.02964 156.781 7.40533 145.095 9.47538L143.659 51.9877L135.353 53.4584L135.457 50.3961L77.3294 60.6905L77.2231 63.7528L74.1584 64.2963L73.9551 70.3873L77.9468 69.68L77.861 72.1782L117.687 65.1247L117.774 62.6265L125.002 61.3458L124.887 64.6761L141.191 61.7888L141.301 58.4604L143.456 58.0787L143.383 60.3014L197.049 50.7963C197.049 50.7963 200.722 45.8744 200.528 42.7451L197.764 43.2347L197.773 43.0262L197.771 43.0243Z" fill="white"></path>
    <path d="M178.844 67.5428C176.029 67.5428 173.448 66.478 171.577 64.5457C169.544 62.444 168.484 59.4748 168.596 56.1892C168.835 49.0985 174.513 42.3578 181.25 41.1646C181.95 41.0399 182.649 40.9766 183.334 40.9766C186.146 40.9766 188.728 42.0395 190.599 43.9718C192.638 46.0772 193.699 49.0464 193.591 52.3358C193.352 59.4246 187.674 66.1616 180.931 67.3548C180.232 67.4795 179.528 67.5428 178.844 67.5428Z" fill="#FCBA11"></path>
    <path d="M171.351 55.9878C171.155 61.6693 175.365 65.4985 180.743 64.5473C186.124 63.5942 190.644 58.218 190.836 52.5365C191.026 46.8588 186.818 43.0202 181.437 43.9734C176.059 44.9265 171.542 50.3101 171.351 55.9878Z" fill="white"></path>
    <path d="M175.801 55.0726C175.7 58.1516 177.985 60.2328 180.908 59.7153C183.827 59.1978 186.286 56.277 186.388 53.198C186.491 50.1078 184.202 48.0303 181.287 48.5478C178.364 49.0653 175.909 51.9824 175.803 55.0744L175.801 55.0726Z" fill="#FCBA11"></path>
    <path d="M94.4208 82.4921C91.6098 82.4921 89.0338 81.4291 87.163 79.5005C85.1261 77.3988 84.0647 74.4297 84.1748 71.1403C84.4098 64.0496 90.0859 57.3089 96.8252 56.1138C97.5246 55.9891 98.2279 55.9258 98.9124 55.9258C101.725 55.9258 104.305 56.9887 106.178 58.921C108.218 61.0246 109.282 63.9956 109.17 67.285C108.931 74.3738 103.251 81.1126 96.5081 82.304C95.8086 82.4288 95.1054 82.4921 94.4208 82.4921Z" fill="#FCBA11"></path>
    <path d="M86.93 70.9375C86.7398 76.619 90.946 80.4482 96.3218 79.497C101.707 78.5438 106.226 73.1677 106.419 67.4862C106.607 61.8085 102.401 57.9681 97.0175 58.923C91.6418 59.8743 87.1203 65.2616 86.9319 70.9375H86.93Z" fill="white"></path>
    <path d="M91.3783 70.0218C91.2757 73.1008 93.5626 75.1821 96.4855 74.6646C99.4009 74.1489 101.861 71.2281 101.964 68.1472C102.068 65.0552 99.7796 62.9796 96.8623 63.4971C93.9412 64.0146 91.4846 66.9316 91.3802 70.0218H91.3783Z" fill="#FCBA11"></path>
    <path d="M139.439 3.35725L27.7831 23.1326C24.8938 23.6445 23.105 26.4294 23.7802 29.3353C24.4386 32.1648 27.147 34.0376 29.9301 33.7136L41.9854 31.5784C44.8617 31.0684 47.7715 33.0193 48.4486 35.9289C49.1313 38.859 47.3183 41.6253 44.442 42.1353L39.0737 43.0866C36.4268 43.7754 34.8264 46.4095 35.47 49.1757C36.1527 52.1077 39.0401 54.0418 41.9294 53.5299L55.5237 51.1229L55.1525 58.7423C55.104 60.2036 56.1933 61.2014 57.5811 60.9557L137.863 46.7371C139.243 46.4932 140.417 45.0933 140.465 43.6339L141.86 5.57064C141.911 4.11304 140.818 3.11711 139.441 3.36097L139.439 3.35725Z" fill="white"></path>
    <path d="M19.606 30.0741C20.2887 33.0079 18.4738 35.7723 15.5975 36.2824L9.9308 37.2858C7.04333 37.7977 4.15587 35.8636 3.47317 32.9316C2.79607 30.0257 4.58675 27.2408 7.47421 26.7289L13.141 25.7255C16.0172 25.2155 18.9289 27.1682 19.606 30.0741Z" fill="white"></path>
    <path d="M31.6672 49.8477C32.3499 52.7797 30.5331 55.5459 27.6568 56.056L25.2394 56.4842C22.3519 56.9961 19.4645 55.0601 18.7818 52.13C18.1047 49.2204 19.8953 46.4392 22.7828 45.9273L25.2002 45.4991C28.0765 44.9891 30.9901 46.9363 31.6672 49.8477Z" fill="white"></path>
    <path d="M163.083 33.4587C163.282 33.0119 163.549 32.9635 163.67 33.3545L164.592 36.3181C164.711 36.7053 165.157 36.9938 165.575 36.951L168.766 36.6438C169.184 36.6047 169.24 36.8598 168.889 37.2116L166.222 39.8811C165.869 40.2329 165.63 40.8658 165.686 41.2884L166.123 44.4996C166.181 44.9222 165.948 45.1269 165.608 44.9557L163.036 43.6358C162.698 43.4627 162.105 43.567 161.721 43.8685L158.8 46.1601C158.416 46.4598 158.216 46.3314 158.358 45.8734L159.436 42.3942C159.579 41.9362 159.453 41.3685 159.158 41.1302L156.923 39.3301C156.627 39.0936 156.735 38.8107 157.162 38.699L160.4 37.8669C160.826 37.7608 161.34 37.3028 161.542 36.8579L163.079 33.4606L163.083 33.4587Z" fill="#FCBA11"></path>
    <path d="M22.2806 111.11L27.2143 110.319C27.7328 110.236 28.1973 110.647 28.1768 111.172L28.0499 114.361C28.035 114.755 27.7422 115.085 27.3505 115.146L21.7546 116.044C21.3629 116.107 21.0719 116.435 21.0551 116.829L20.5459 129.579C20.531 129.974 20.2381 130.303 19.8464 130.365L16.1438 130.958C15.6253 131.042 15.1608 130.631 15.1813 130.106L16.4777 97.631C16.4926 97.2363 16.7855 96.9068 17.1772 96.8454L29.725 94.8312C30.2435 94.7474 30.708 95.1588 30.6875 95.6838L30.5606 98.8745C30.5457 99.2691 30.2528 99.5986 29.8611 99.6601L22.3589 100.863C21.9691 100.926 21.6763 101.254 21.6595 101.648L21.3163 110.254C21.2957 110.777 21.7602 111.191 22.2787 111.107L22.2806 111.11Z" fill="white"></path>
    <path d="M45.1505 126.304C44.7178 126.372 44.2981 126.099 44.2067 125.671C44.078 125.064 44.0183 124.228 44.0947 122.305L44.3093 116.936C44.4361 113.76 43.4065 112.763 40.9629 113.155L39.1051 113.453L38.5772 126.685C38.5623 127.08 38.2695 127.409 37.8777 127.471L34.177 128.065C33.6585 128.148 33.194 127.737 33.2145 127.212L34.5109 94.7372C34.5258 94.3425 34.8187 94.0131 35.2104 93.9516L42.651 92.7565C48.2245 91.8611 50.5151 94.067 50.3043 99.3371L50.198 102.021C50.0805 104.979 49.2 107.204 47.4653 108.732C47.0475 109.101 47.1519 109.738 47.622 110.037C49.2896 111.098 49.7988 113.278 49.6813 116.218L49.4705 121.49C49.4201 122.77 49.4089 123.783 49.6272 124.723C49.7335 125.177 49.409 125.619 48.9482 125.693L45.1524 126.304H45.1505ZM39.7188 98.0787L39.2991 108.572L41.4013 108.235C43.4065 107.913 44.6637 106.839 44.7718 104.105L44.9061 100.737C45.0031 98.2965 44.216 97.3583 42.3097 97.6636L39.7169 98.0787H39.7188Z" fill="white"></path>
    <path d="M61.2089 104.081L66.5828 103.219C67.1013 103.135 67.5658 103.547 67.5453 104.072L67.4184 107.263C67.4035 107.657 67.1107 107.987 66.7189 108.048L60.6829 109.016C60.2912 109.079 60.0002 109.407 59.9834 109.802L59.6514 118.115C59.6309 118.638 60.0953 119.052 60.6139 118.968L67.8941 117.801C68.4126 117.717 68.8771 118.128 68.8566 118.653L68.7297 121.842C68.7148 122.237 68.422 122.566 68.0302 122.628L55.0422 124.713C54.5237 124.797 54.0592 124.385 54.0798 123.86L55.3761 91.3853C55.3911 90.9907 55.6839 90.6612 56.0756 90.5997L69.0655 88.5148C69.584 88.431 70.0485 88.8424 70.028 89.3674L69.9011 92.5581C69.8862 92.9527 69.5934 93.2822 69.2016 93.3437L61.2593 94.6188C60.8694 94.6821 60.5766 95.0097 60.5598 95.4044L60.2464 103.229C60.2259 103.752 60.6903 104.165 61.2089 104.081Z" fill="white"></path>
    <path d="M80.4101 100.999L85.7859 100.137C86.3045 100.053 86.7689 100.465 86.7484 100.99L86.6216 104.18C86.6066 104.575 86.3138 104.905 85.9221 104.966L79.8841 105.934C79.4924 105.997 79.2014 106.325 79.1846 106.72L78.8526 115.033C78.8321 115.556 79.2966 115.97 79.8151 115.886L87.0972 114.719C87.6158 114.635 88.0802 115.046 88.0597 115.571L87.9329 118.76C87.9179 119.155 87.6251 119.484 87.2334 119.546L74.2454 121.631C73.7268 121.714 73.2624 121.303 73.2829 120.778L74.5793 88.3033C74.5942 87.9086 74.887 87.5791 75.2787 87.5177L88.2686 85.4327C88.7872 85.349 89.2516 85.7604 89.2311 86.2853L89.1043 89.476C89.0893 89.8707 88.7965 90.2002 88.4048 90.2616L80.4605 91.5368C80.0707 91.6001 79.7778 91.9277 79.761 92.3224L79.4477 100.146C79.4271 100.67 79.8916 101.083 80.4101 100.999Z" fill="white"></path>
    <path d="M109.86 81.5769C115.09 80.7373 117.651 83.4272 117.433 88.8946L117.39 89.9669L112.307 90.7841L112.363 89.3693C112.46 86.9288 111.524 86.1581 109.813 86.4318C108.103 86.7073 107.086 87.7926 106.989 90.2331C106.709 97.2605 117.166 96.8919 116.776 106.652C116.558 112.119 113.697 115.682 108.418 116.528C103.141 117.376 100.526 114.692 100.744 109.225L100.828 107.127L105.911 106.309L105.814 108.752C105.717 111.19 106.756 111.898 108.466 111.622C110.177 111.347 111.287 110.297 111.384 107.856C111.663 100.829 101.212 101.196 101.6 91.4338C101.818 85.9645 104.628 82.4127 109.858 81.5731L109.86 81.5769Z" fill="white"></path>
    <path d="M125.448 113.408L121.747 114.001C121.229 114.085 120.764 113.674 120.785 113.149L122.081 80.6739C122.096 80.2793 122.389 79.9498 122.781 79.8883L126.481 79.2945C127 79.2107 127.464 79.6221 127.444 80.1471L126.94 92.7628C126.92 93.2859 127.384 93.6992 127.903 93.6154L132.337 92.9025C132.726 92.8392 133.019 92.5115 133.036 92.1169L133.566 78.831C133.581 78.4363 133.874 78.1068 134.265 78.0454L138.065 77.4367C138.583 77.3529 139.048 77.7643 139.027 78.2892L137.733 110.764C137.718 111.159 137.425 111.488 137.033 111.55L133.234 112.16C132.715 112.244 132.251 111.833 132.271 111.308L132.773 98.69C132.794 98.1669 132.329 97.7537 131.811 97.8375L127.377 98.5504C126.987 98.6137 126.694 98.9414 126.677 99.336L126.146 112.622C126.131 113.017 125.838 113.346 125.446 113.408H125.448Z" fill="white"></path>
    <path d="M144.866 76.343L148.566 75.7492C149.085 75.6654 149.549 76.0768 149.529 76.6017L148.234 109.077C148.22 109.471 147.927 109.801 147.535 109.862L143.834 110.456C143.316 110.54 142.851 110.128 142.872 109.603L144.166 77.1286C144.181 76.7339 144.474 76.4044 144.866 76.343Z" fill="white"></path>
    <path d="M170.299 80.6467L170.121 85.0902C169.903 90.5576 167.146 93.9586 161.769 94.8224L159.228 95.2301L158.743 107.388C158.728 107.783 158.435 108.112 158.044 108.173L154.341 108.767C153.823 108.851 153.358 108.44 153.379 107.915L154.673 75.438C154.688 75.0434 154.981 74.7139 155.373 74.6524L162.619 73.489C167.997 72.6252 170.517 75.1793 170.299 80.6448V80.6467ZM159.885 78.7814L159.422 90.3491L161.963 89.9414C163.673 89.6659 164.632 88.7351 164.731 86.2946L164.936 81.1698C165.033 78.7274 164.138 78.0982 162.427 78.3718L159.887 78.7795L159.885 78.7814Z" fill="white"></path>
    <path d="M189.942 77.4938L189.765 81.9373C189.547 87.4047 186.79 90.8058 181.416 91.6677L178.874 92.0753L178.389 104.233C178.374 104.628 178.081 104.957 177.689 105.019L173.989 105.613C173.47 105.696 173.006 105.285 173.026 104.76L174.321 72.2851C174.335 71.8905 174.628 71.561 175.02 71.4996L182.267 70.3361C187.642 69.4742 190.162 72.0264 189.944 77.4938H189.942ZM179.528 75.6266L179.066 87.1943L181.608 86.7867C183.317 86.513 184.277 85.5804 184.376 83.1417L184.582 78.0187C184.679 75.5764 183.781 74.9453 182.073 75.2208L179.53 75.6285L179.528 75.6266Z" fill="white"></path>
    <path d="M194.66 68.3469L198.362 67.7531C198.881 67.6693 199.345 68.0807 199.325 68.6057L198.03 101.08C198.015 101.475 197.722 101.805 197.331 101.866L193.628 102.46C193.11 102.544 192.645 102.132 192.666 101.607L193.96 69.1325C193.975 68.7378 194.268 68.4083 194.66 68.3469Z" fill="white"></path>
    <path d="M208.673 81.3917L207.953 99.4879C207.938 99.8825 207.645 100.212 207.254 100.273L204.09 100.782C203.572 100.865 203.107 100.454 203.128 99.9291L204.422 67.4542C204.437 67.0596 204.73 66.7301 205.122 66.6687L210.432 65.8161C210.861 65.7472 211.271 66.019 211.372 66.4416L214.5 79.4389C214.726 80.3753 216.101 80.2413 216.14 79.2788L216.688 65.4847C216.703 65.0901 216.996 64.7606 217.388 64.6991L220.501 64.1984C221.019 64.1146 221.484 64.526 221.463 65.051L220.169 97.5258C220.154 97.9205 219.861 98.25 219.471 98.3114L215.381 98.9685C214.952 99.0374 214.541 98.7656 214.441 98.343L210.313 81.2298C210.087 80.2934 208.712 80.4274 208.673 81.3917Z" fill="white"></path>
    <path d="M234.714 76.9483L240.568 76.0082C241.086 75.9245 241.551 76.3359 241.53 76.8608L241.139 86.6824C240.92 92.1498 238.059 95.7128 232.78 96.5617C227.503 97.4106 224.888 94.7262 225.106 89.2588L225.813 71.494C226.032 66.0247 228.895 62.4636 234.172 61.6147C239.45 60.7677 242.064 63.4502 241.845 68.9194L241.741 71.5573C241.726 71.9519 241.433 72.2814 241.042 72.3447L237.634 72.892C237.115 72.9758 236.651 72.5644 236.671 72.0394L236.777 69.3941C236.873 66.9536 235.834 66.1997 234.125 66.4734C232.415 66.747 231.299 67.849 231.202 70.2895L230.467 88.7394C230.37 91.1799 231.411 91.8855 233.122 91.6118C234.83 91.3363 235.942 90.2845 236.041 87.844L236.293 81.5464L233.847 81.9392L234.013 77.7376C234.028 77.343 234.321 77.0135 234.713 76.9521L234.714 76.9483Z" fill="white"></path>
    <path d="M156.102 129.341C155.356 129.341 154.698 128.803 154.571 128.043C154.431 127.2 155.004 126.401 155.849 126.262L233.797 113.352C234.651 113.218 235.444 113.782 235.584 114.627C235.724 115.47 235.151 116.269 234.306 116.408L156.358 129.318C156.27 129.333 156.186 129.339 156.1 129.339L156.102 129.341Z" fill="#DF8C0F"></path>
    <path d="M115.042 136.139C114.296 136.139 113.639 135.601 113.51 134.841C113.37 133.998 113.943 133.2 114.788 133.06L146.569 127.795C147.423 127.652 148.216 128.225 148.356 129.071C148.496 129.914 147.923 130.712 147.078 130.852L115.297 136.117C115.21 136.131 115.126 136.137 115.04 136.137L115.042 136.139Z" fill="#DF8C0F"></path>
    <path d="M230.378 9.55296C229.632 9.55296 228.975 9.01497 228.846 8.25546C228.706 7.41217 229.279 6.61357 230.124 6.47395L261.905 1.20947C262.759 1.06613 263.552 1.63949 263.692 2.48463C263.832 3.32792 263.259 4.12653 262.414 4.26614L230.633 9.53062C230.546 9.54552 230.462 9.5511 230.376 9.5511L230.378 9.55296Z" fill="#DF8C0F"></path>
  </g>
  <defs>
    <clipPath id="clip0_2003_17993">
      <rect width="281" height="173" fill="white"></rect>
    </clipPath>
  </defs>
</svg>
