<?xml version="1.0" standalone="no"?>
<!DOCTYPE svg PUBLIC "-//W3C//DTD SVG 20010904//EN"
 "http://www.w3.org/TR/2001/REC-SVG-20010904/DTD/svg10.dtd">
<svg version="1.0" xmlns="http://www.w3.org/2000/svg"
 width="1250.000000pt" height="1250.000000pt" viewBox="0 0 1250.000000 1250.000000"
 preserveAspectRatio="xMidYMid meet">
<metadata>
Created by potrace 1.14, written by Peter Selinger 2001-2017
</metadata>
<g transform="translate(0.000000,1250.000000) scale(0.100000,-0.100000)"
fill="#000000" stroke="none">
<path d="M9208 12325 c-1 -2 -28 -6 -58 -10 -30 -4 -58 -9 -62 -11 -4 -3 -26
-7 -49 -10 -23 -4 -57 -12 -75 -20 -19 -8 -35 -14 -36 -13 -2 1 -20 -6 -42
-15 -21 -9 -40 -16 -42 -16 -11 0 -194 -114 -194 -121 0 -5 -5 -9 -10 -9 -11
0 -50 -33 -104 -86 -36 -36 -116 -125 -116 -130 0 -2 -15 -25 -34 -51 -30 -43
-105 -181 -107 -200 -1 -5 -6 -19 -12 -33 -5 -14 -20 -65 -33 -115 -20 -79
-22 -111 -20 -260 3 -174 20 -276 61 -354 8 -17 13 -31 10 -31 -8 0 60 -131
96 -186 48 -71 136 -174 178 -207 20 -15 41 -33 46 -40 16 -20 119 -87 133
-87 6 0 12 -4 12 -9 0 -7 47 -31 155 -76 42 -18 143 -44 196 -51 24 -3 55 -7
69 -10 36 -6 238 -7 247 -1 4 3 32 8 61 11 81 9 177 39 282 89 31 15 151 88
167 102 6 5 26 21 44 35 233 179 393 522 391 840 -2 241 -88 484 -236 665 -58
71 -142 155 -155 155 -6 0 -11 4 -11 9 0 14 -116 91 -198 131 -109 54 -174 74
-337 105 -35 7 -212 15 -217 10z"/>
<path d="M6107 11984 c-1 -1 -47 -5 -102 -8 -211 -13 -281 -17 -302 -21 -67
-11 -174 -26 -213 -29 -25 -3 -65 -9 -90 -15 -25 -5 -67 -12 -95 -16 -27 -3
-66 -10 -85 -15 -19 -5 -53 -11 -75 -15 -22 -3 -65 -12 -95 -19 -30 -8 -86
-22 -125 -32 -38 -10 -75 -19 -82 -20 -33 -6 -153 -36 -188 -48 -22 -8 -74
-24 -115 -36 -101 -30 -191 -59 -215 -69 -11 -5 -67 -26 -125 -46 -99 -35
-132 -49 -222 -89 -20 -9 -39 -16 -42 -16 -3 0 -48 -20 -98 -44 -51 -23 -97
-45 -103 -47 -13 -4 -221 -113 -300 -156 -33 -18 -71 -38 -85 -45 -14 -7 -29
-16 -35 -21 -5 -4 -66 -42 -135 -85 -135 -83 -162 -101 -303 -204 -165 -119
-207 -152 -207 -161 0 -4 -4 -5 -10 -2 -5 3 -10 2 -10 -3 0 -5 -28 -31 -62
-58 -35 -27 -70 -56 -79 -64 -9 -8 -60 -55 -115 -105 -120 -109 -273 -263
-374 -375 -41 -45 -82 -90 -90 -99 -8 -9 -35 -41 -60 -71 -25 -30 -47 -57 -50
-60 -14 -14 -91 -113 -165 -213 -46 -62 -90 -119 -97 -128 -7 -9 -17 -23 -23
-31 -54 -82 -70 -104 -86 -122 -11 -11 -19 -26 -19 -33 0 -7 -4 -13 -8 -13 -5
0 -14 -10 -21 -22 -6 -13 -19 -35 -29 -49 -21 -33 -179 -287 -195 -314 -6 -11
-18 -31 -26 -45 -8 -14 -13 -25 -10 -25 2 0 -6 -14 -19 -32 -12 -17 -22 -36
-22 -41 0 -6 -4 -12 -8 -14 -13 -5 -209 -409 -266 -548 -15 -36 -31 -74 -36
-85 -21 -46 -83 -218 -121 -335 -22 -69 -46 -143 -53 -165 -21 -62 -45 -147
-50 -175 -2 -14 -9 -43 -15 -65 -20 -73 -51 -210 -56 -250 -4 -22 -10 -56 -15
-75 -5 -19 -12 -60 -15 -90 -3 -30 -8 -64 -10 -75 -11 -46 -17 -81 -17 -95 0
-22 -18 -201 -23 -230 -10 -59 -18 -251 -18 -440 -1 -191 9 -435 17 -449 4 -6
17 -132 21 -206 3 -45 15 -127 20 -135 2 -3 6 -34 10 -70 4 -36 9 -73 11 -82
2 -10 6 -26 8 -35 2 -10 7 -40 10 -68 4 -27 11 -63 16 -80 5 -16 27 -109 49
-205 22 -96 49 -201 60 -232 11 -32 18 -58 16 -58 -2 0 5 -25 16 -55 10 -30
19 -63 19 -73 0 -10 5 -23 10 -28 6 -6 13 -24 16 -40 3 -16 11 -42 19 -59 11
-26 38 -102 50 -145 7 -26 75 -194 85 -212 6 -10 10 -22 10 -28 0 -5 12 -35
26 -67 14 -32 29 -67 34 -78 47 -112 107 -241 192 -410 38 -77 76 -147 83
-155 8 -8 14 -18 14 -23 1 -20 211 -377 243 -413 10 -11 18 -25 18 -31 0 -5 9
-18 20 -28 11 -10 20 -22 20 -27 0 -6 8 -20 18 -33 9 -12 24 -33 32 -45 8 -12
21 -28 28 -36 6 -7 12 -15 12 -19 0 -3 12 -23 27 -43 38 -51 40 -54 64 -82 12
-14 32 -42 45 -63 13 -20 29 -37 34 -37 6 0 10 -6 10 -14 0 -8 3 -16 7 -18 8
-3 48 -49 93 -107 14 -18 41 -50 60 -71 19 -22 64 -71 100 -111 163 -181 438
-440 588 -554 29 -21 52 -43 52 -47 0 -4 6 -8 14 -8 8 0 16 -4 18 -8 5 -14
302 -227 358 -258 11 -6 28 -18 38 -27 10 -10 21 -17 24 -17 3 0 32 -16 64
-36 146 -89 145 -89 251 -145 175 -93 346 -174 478 -228 11 -5 34 -14 50 -21
76 -32 151 -62 165 -65 8 -2 47 -16 85 -30 142 -52 491 -158 565 -172 14 -2
48 -10 75 -18 81 -23 317 -71 397 -81 24 -3 76 -12 116 -20 40 -8 99 -16 130
-19 31 -3 66 -7 77 -9 34 -7 128 -18 180 -21 28 -1 93 -6 145 -11 140 -13 204
-11 655 11 99 5 186 13 225 20 14 2 59 6 100 9 90 7 138 13 205 26 28 5 70 12
95 14 42 5 155 24 357 60 45 8 91 19 101 25 10 5 36 12 58 15 21 2 67 12 101
21 35 9 71 18 80 20 19 5 178 52 298 88 79 24 246 84 252 91 4 3 13 6 20 6 8
0 35 10 61 22 26 12 49 22 52 22 3 1 26 9 50 20 25 10 54 22 65 27 161 66 553
267 596 305 8 8 19 14 23 14 4 0 27 14 51 30 24 17 48 30 52 30 5 0 19 9 31
20 11 11 39 29 61 41 22 11 45 27 52 35 6 8 18 14 26 14 7 0 16 7 19 15 4 8
12 15 19 15 6 0 20 9 30 20 10 11 22 20 27 20 5 0 16 6 23 13 17 14 10 9 145
111 58 44 107 83 110 86 3 3 30 25 60 50 30 25 62 52 70 60 9 8 34 30 55 48
136 114 423 398 574 567 30 33 68 76 85 95 17 19 49 58 71 85 22 28 43 52 47
55 3 3 27 32 52 65 25 33 49 65 54 70 4 6 21 28 37 50 17 22 35 45 40 51 6 6
17 22 25 34 8 12 28 41 45 64 44 62 165 246 165 251 0 3 16 28 35 55 19 27 35
52 35 54 0 3 28 53 63 113 118 201 258 500 343 728 24 66 49 129 55 140 6 12
11 27 13 35 1 8 13 47 25 85 37 115 99 330 107 375 3 14 11 45 19 70 8 25 17
63 20 85 4 22 10 56 15 75 5 19 12 55 15 80 4 25 10 63 15 86 5 22 12 61 15
85 9 79 16 123 25 164 5 22 12 81 15 130 3 50 8 101 11 115 25 139 25 979 0
1130 -3 14 -7 67 -10 119 -4 51 -8 103 -11 115 -2 11 -7 37 -10 56 -2 19 -7
44 -9 56 -2 11 -7 47 -10 79 -4 32 -11 77 -16 100 -5 23 -12 61 -15 85 -3 24
-9 60 -15 80 -5 19 -11 49 -13 65 -6 35 -33 150 -53 215 -7 25 -15 56 -17 70
-8 44 -118 394 -133 422 -8 15 -14 30 -13 33 7 31 -232 569 -331 745 -21 36
-52 92 -70 125 -18 33 -39 67 -46 76 -8 8 -14 19 -14 23 0 4 -13 27 -30 51
-16 24 -30 47 -30 52 0 4 -11 21 -25 37 -14 16 -25 35 -25 42 0 7 -4 14 -8 16
-4 2 -19 21 -32 43 -26 43 -27 44 -65 91 -14 18 -25 36 -25 41 0 5 -8 18 -18
29 -17 18 -83 104 -130 168 -26 35 -62 82 -111 140 -92 112 -107 131 -121 146
-8 9 -48 54 -89 101 -41 46 -118 128 -172 182 -125 125 -128 125 -250 15 -90
-81 -171 -141 -267 -197 -79 -46 -176 -92 -205 -98 -10 -2 -30 -9 -46 -17 -31
-16 -170 -51 -246 -62 -27 -3 -59 -8 -70 -11 -56 -11 -269 -3 -325 12 -8 2
-37 7 -65 11 -65 8 -231 64 -321 107 -117 58 -223 127 -317 207 -42 36 -161
160 -184 194 -15 20 -30 36 -35 36 -4 0 -8 5 -8 10 0 6 -12 28 -26 50 -56 84
-124 226 -139 290 -2 8 -8 28 -15 45 -10 26 -23 84 -46 197 -15 74 -7 449 10
477 2 3 7 28 10 55 4 27 9 52 11 56 23 37 7 123 -27 141 -25 13 -102 36 -148
44 -19 3 -48 10 -65 15 -55 18 -208 52 -249 56 -23 3 -54 9 -71 14 -16 5 -52
12 -80 15 -27 3 -68 10 -90 15 -22 5 -71 12 -110 15 -38 4 -77 9 -85 10 -14 3
-77 12 -130 20 -14 2 -68 7 -120 10 -52 3 -131 8 -175 11 -73 6 -493 12 -498
8z"/>
</g>
</svg>
